# xmcd
#
# Track frame offsets: 
#        150
#        18318
#        35156
#        52682
#        70334
#        89957
#        109068
#        132066
#        149982
#        167918
#        183438
#        204374
#        221588
#        240806
#        254414
#        276086
#        292829
#        310892
#
# Disc length: 4417 seconds
#
# Revision: 3
# Processed by: cddbd v1.5.2PL0 Copyright (c) Steve Scherf et al.
# Submitted via: ExactAudioCopy v0.99pb5
#
DISCID=0f113f12
DTITLE=Joe Cocker - Gold - CD 2
DYEAR=2006
DGENRE=Pop
TTITLE0=Sweet little woman
TTITLE1=Many rivers to cross
TTITLE2=Up where we belong (with Jennifer Warnes)
TTITLE3=Civilized man
TTITLE4=Shelter me
TTITLE5=You can leave your hat on
TTITLE6=Unchain my heart
TTITLE7=When the night comes
TTITLE8=Sorry seems to be the hardest word
TTITLE9=Night calls
TTITLE10=Now that the magic has gone
TTITLE11=Summer in the city
TTITLE12=Have a little faith in me
TTITLE13=Sail away
TTITLE14=Tonight
TTITLE15=First we take Manhattan
TTITLE16=You cant have my heart
TTITLE17=One
EXTD=YEAR: 2006
EXTT0=
EXTT1=
EXTT2=
EXTT3=
EXTT4=
EXTT5=
EXTT6=
EXTT7=
EXTT8=
EXTT9=
EXTT10=
EXTT11=
EXTT12=
EXTT13=
EXTT14=
EXTT15=
EXTT16=
EXTT17=
PLAYORDER=
